<?xml version="1.0" encoding="utf-8"?>
<!-- Generator: Adobe Illustrator 22.1.0, SVG Export Plug-In . SVG Version: 6.00 Build 0)  -->
<svg version="1.1" id="Layer_1" xmlns="http://www.w3.org/2000/svg" xmlns:xlink="http://www.w3.org/1999/xlink" x="0px" y="0px"
	 viewBox="0 0 512 512" style="enable-background:new 0 0 512 512;" xml:space="preserve">
<g>
	<title>hashnode</title>
	<g>
		<path d="M103,31h306c39.8,0,72,32.2,72,72v306c0,39.8-32.2,72-72,72H103c-39.8,0-72-32.2-72-72V103C31,63.2,63.2,31,103,31z
			 M368.8,436.7L368.8,436.7c60.3-1.5,63.9-90,3.8-96.4l-92.1-162.7c-13.5-24.2-39.6-23.2-48.9,11.2c-8,32.5-6,63.2-8.3,100.3
			c0,0.2-0.2,0.4-0.4,0.5c-0.2,0.1-0.5-0.1-0.6-0.2l-82.3-164.1c6.7-5.3,10.6-13.3,10.6-21.8c0-24.4-29.4-36.6-46.6-19.3
			c-17.2,17.2-5.1,46.6,19.3,46.6c1.3,0,2.3-0.2,3.4-0.2c34.6,89.1,73.2,193,87,216.9c9.4,22.9,41.4,15.6,42.2-9.2l3.4-129.9
			c0-0.8,1-0.8,1.3-0.3l66.2,157.3C309,397.4,332.2,436.6,368.8,436.7L368.8,436.7z"/>
	</g>
</g>
</svg>
